<svg xmlns="http://www.w3.org/2000/svg" viewBox="0 0 512 512" width="512" height="512">
    <defs>
        <linearGradient id="grad" x1="0%" y1="0%" x2="100%" y2="100%">
            <stop offset="0%" style="stop-color:#0d6efd;stop-opacity:1" />
            <stop offset="100%" style="stop-color:#0a58ca;stop-opacity:1" />
        </linearGradient>
        <filter id="shadow">
            <feDropShadow dx="0" dy="2" stdDeviation="3" flood-color="#000" flood-opacity="0.3"/>
        </filter>
    </defs>
    <circle cx="256" cy="256" r="248" fill="url(#grad)" filter="url(#shadow)"/>
    <path d="M200 150v212c0 5.523 4.477 10 10 10h92c5.523 0 10-4.477 10-10V150c0-5.523-4.477-10-10-10h-92c-5.523 0-10 4.477-10 10zm102 0v212h-92V150h92z" 
          fill="#fff" fill-opacity="0.9"/>
    <path d="M246 180c-8.837 0-16 7.163-16 16v120c0 8.837 7.163 16 16 16s16-7.163 16-16V196c0-8.837-7.163-16-16-16z" 
          fill="#fff" fill-opacity="0.9"/>
</svg> 